<?xml version="1.0" encoding="UTF-8"?>
<svg width="1200pt" height="1200pt" version="1.1" viewBox="0 0 1200 1200" xmlns="http://www.w3.org/2000/svg">
 <path fill="#a90026" d="m819.84 599.63c-11.766-11.766-30.703-11.766-42.469 0l-178.55 178.55-176.16-176.16c-11.766-11.766-30.703-11.766-42.469 0-11.766 11.766-11.766 30.703 0 42.469l197.39 197.39c5.625 5.625 13.219 8.7656 21.234 8.7656 8.0625 0 15.609-3.1406 21.234-8.7656l199.78-199.78c11.766-11.766 11.766-30.703 0-42.469z"/>
 <path fill="#a90026" d="m819.84 358.08c-11.766-11.766-30.703-11.766-42.469 0l-178.55 178.55-176.16-176.16c-11.766-11.766-30.703-11.766-42.469 0-11.766 11.766-11.766 30.703 0 42.469l197.39 197.39c5.8594 5.8594 13.547 8.7656 21.234 8.7656s15.375-2.8594 21.234-8.7656l199.78-199.78c11.766-11.766 11.766-30.703 0-42.469z"/>
</svg>
